:SAMPLES-PER-SECOND 30
:FULLY-SPECIFIED
:DEGREES
452
root  -10.3322 35.0234 18.4764 174.495 -23.047 177.209
RightUpLeg  -6.49411 -1.63742 -20.3762
RightLeg  45.4069 -7.09852 -7.96051
RightFoot  -22.952 3.35084 33.5557
RightToes  -5.8209e-011 0 -3.6325e-017
Spine  26.8944 2.99604 29.4426
Spine1  4.03792 11.0424 -0.652903
HEad  -7.06781 -41.49 -12.9901
LeftShoulder1  1.71276 -3.70577 -17.0907
LeftArm  15.1078 30.961 -52.4734
LeftForeArm  -4.33409 -49.2748 -13.3791
LeftHand  -1.36255 -1.26731 23.6867
RightShoulder  0.447219 -0.913678 10.0661
RightArm  6.25652 31.5348 72.4685
RightForeArm  -11.4401 77.2666 79.3616
RightHand  -2.46387 3.05007 -33.225
LeftUpLeg  -25.1456 -7.98138 21.2596
LeftLeg  31.8696 2.1009 1.76463
LeftFoot  1.65802 3.08623 -26.7261
LeftToes  -3.91115e-011 -2.2622e-010 9.51032e-012
453
root  -9.80492 34.7781 18.747 174.099 -21.7034 177.539
RightUpLeg  -8.81622 -2.66091 -20.0323
RightLeg  47.8171 -5.40849 -6.69731
RightFoot  -23.86 3.46805 32.2826
RightToes  -5.8209e-011 0 -3.6325e-017
Spine  27.2283 2.30462 29.7156
Spine1  5.09734 10.5843 -0.502487
HEad  -7.21906 -39.1689 -12.9571
LeftShoulder1  1.65816 -3.3415 -17.5935
LeftArm  13.7303 30.0318 -53.449
LeftForeArm  -3.09411 -46.5519 -12.0406
LeftHand  -1.56867 -1.84272 25.0636
RightShoulder  0.508478 -0.661597 10.7438
RightArm  9.66801 30.1609 70.666
RightForeArm  -14.7055 77.0891 75.6479
RightHand  -2.88956 4.24992 -34.0788
LeftUpLeg  -25.102 -8.66217 22.2556
LeftLeg  32.673 5.56756 4.18107
LeftFoot  1.52527 2.86218 -25.1116
LeftToes  -3.91115e-011 -2.2622e-010 9.51032e-012
454
root  -9.46693 34.8688 18.8535 174.644 -20.5401 176.978
RightUpLeg  -10.3368 -2.50415 -20.1749
RightLeg  47.9306 -3.88687 -4.94649
RightFoot  -23.6074 3.37796 32.1414
RightToes  -5.8209e-011 0 -3.6325e-017
Spine  26.574 2.47168 27.7628
Spine1  6.49089 9.74857 0.835553
HEad  -8.5691 -36.6501 -12.0119
LeftShoulder1  1.54916 -2.87898 -17.6374
LeftArm  13.5218 29.0953 -55.0701
LeftForeArm  -0.495491 -45.8627 -11.5823
LeftHand  -1.75227 -2.48637 25.7215
RightShoulder  0.615463 -0.296784 12.1923
RightArm  11.8445 25.5605 68.0688
RightForeArm  -14.2989 76.9623 73.6854
RightHand  -3.20004 5.23195 -34.2539
LeftUpLeg  -24.7009 -8.29586 21.4424
LeftLeg  32.4651 9.73972 6.9581
LeftFoot  1.77857 2.2334 -19.352
LeftToes  -3.91115e-011 -2.2622e-010 9.51032e-012
455
root  -9.34291 35.2237 18.8758 175.239 -19.4416 176.458
RightUpLeg  -10.4263 -2.32677 -20.1822
RightLeg  46.0324 -4.07234 -4.81354
RightFoot  -22.856 3.06497 31.2046
RightToes  -5.8209e-011 0 -3.6325e-017
Spine  25.487 2.65738 25.4136
Spine1  7.80159 8.73065 2.01397
HEad  -10.112 -34.0751 -11.1943
LeftShoulder1  1.37926 -2.30953 -17.0432
LeftArm  13.8844 28.2946 -56.5762
LeftForeArm  2.48162 -46.9199 -11.8223
LeftHand  -1.69425 -2.83372 23.8517
RightShoulder  0.732581 0.111582 13.3852
RightArm  13.2931 19.2909 65.7551
RightForeArm  -13.6197 76.942 73.4073
RightHand  -3.01301 5.04425 -32.9001
LeftUpLeg  -23.7683 -5.73488 19.7181
LeftLeg  31.5615 10.4896 7.23927
LeftFoot  1.22065 1.65389 -15.0212
LeftToes  -3.91115e-011 -2.2622e-010 9.51032e-012
456
root  -9.48949 35.7116 18.859 175.493 -18.5925 176.532
RightUpLeg  -9.27878 -2.70099 -20.1003
RightLeg  42.5049 -4.91352 -5.11025
RightFoot  -21.3712 2.49417 29.465
RightToes  -5.8209e-011 0 -3.6325e-017
Spine  23.9895 2.40202 24.0071
Spine1  8.88001 7.62775 2.43729
HEad  -11.166 -31.7499 -10.7707
LeftShoulder1  1.21276 -1.74298 -16.3816
LeftArm  14.0716 27.1693 -57.3375
LeftForeArm  5.84686 -48.6193 -12.3233
LeftHand  -1.3574 -2.93134 19.0044
RightShoulder  0.81166 0.373179 14.1223
RightArm  15.2344 12.7904 63.4644
RightForeArm  -12.8416 77.0336 74.8697
RightHand  -2.58339 4.00027 -31.4391
LeftUpLeg  -22.7272 -3.60971 17.9642
LeftLeg  31.2221 5.51619 3.92392
LeftFoot  -1.5546 1.43306 -16.7032
LeftToes  -3.91115e-011 -2.2622e-010 9.51032e-012
